<?xml version="1.0" standalone="no"?><!DOCTYPE svg PUBLIC "-//W3C//DTD SVG 1.1//EN" "http://www.w3.org/Graphics/SVG/1.1/DTD/svg11.dtd"><svg t="1545104568077" class="icon" style="" viewBox="0 0 1024 1024" version="1.1" xmlns="http://www.w3.org/2000/svg" p-id="4578" xmlns:xlink="http://www.w3.org/1999/xlink" width="200" height="200"><defs><style type="text/css"></style></defs><path d="M311.616042 316.949267h389.909252c121.322641 0 219.519954 98.090646 219.519954 219.434621V951.039802c0 13.418664-10.815998 24.213328-24.362661 24.213328H116.458749a24.405328 24.405328 0 0 1-24.362662-24.213328V536.383888c0-121.109308 98.410646-219.434621 219.519955-219.434621zM43.328098 951.039802A73.173318 73.173318 0 0 0 116.480082 1023.999787h780.223838a72.959985 72.959985 0 0 0 73.130651-72.959985V536.362555c0-148.266636-120.042642-268.202611-268.287944-268.202611H311.616042c-148.053302 0-268.287944 120.149308-268.287944 268.202611V951.039802z m268.20261-512.17056c13.567997 0 24.383995 10.815998 24.383995 24.533328v72.853318c0 13.65333-10.837331 24.533328-24.383995 24.533329a24.277328 24.277328 0 0 1-24.383994-24.533329v-72.853318c0-13.65333 10.815998-24.533328 24.383994-24.533328z m-73.151984 97.386646a73.045318 73.045318 0 0 0 73.151984 73.279985c40.533325 0 73.130651-32.767993 73.130652-73.279985v-72.853318a73.045318 73.045318 0 0 0-73.130652-73.279985 73.087985 73.087985 0 0 0-73.151984 73.279985v72.853318z m438.869242-97.386646c13.567997 0 24.362662 10.815998 24.362661 24.533328v72.853318c0 13.65333-10.815998 24.533328-24.362661 24.533329a24.277328 24.277328 0 0 1-24.383995-24.533329v-72.853318c0-13.65333 10.815998-24.533328 24.383995-24.533328z m-73.151985 97.386646a73.045318 73.045318 0 0 0 73.151985 73.279985c40.533325 0 73.130651-32.767993 73.130651-73.279985v-72.853318a73.045318 73.045318 0 0 0-73.130651-73.279985 73.087985 73.087985 0 0 0-73.151985 73.279985v72.853318z m-268.181278-316.799934c0-94.186647 76.543984-170.666631 170.666631-170.666631 94.165314 0 170.666631 76.543984 170.666632 170.666631v195.050626h48.746656v-195.050626C725.994622 98.389313 627.690643 0 506.581334 0 385.536026 0 287.146714 98.30398 287.146714 219.434621v195.050626h48.767989v-195.050626zM762.666614 853.333156a24.383995 24.383995 0 1 0 0-48.76799H92.096087V853.333156h670.591861z" p-id="4579" fill="#ffffff"></path></svg>