<?xml version="1.0" standalone="no"?><!DOCTYPE svg PUBLIC "-//W3C//DTD SVG 1.1//EN" "http://www.w3.org/Graphics/SVG/1.1/DTD/svg11.dtd"><svg t="1545065602377" class="icon" style="" viewBox="0 0 1024 1024" version="1.1" xmlns="http://www.w3.org/2000/svg" p-id="2100" xmlns:xlink="http://www.w3.org/1999/xlink" width="200" height="200"><defs><style type="text/css"></style></defs><path d="M771.52 320c18.112-12.864 35.52-27.232 51.456-43.136 33.408-33.408 55.744-74.496 62.912-115.712 7.872-45.184-3.68-87.136-31.616-115.104-22.304-22.304-52.512-34.08-87.36-34.08-49.632 0-101.92 23.808-143.456 65.376-66.464 66.464-105.216 158.24-126.08 223.712-15.424-65.792-46.208-154.656-106.016-214.464-32.096-32.096-73.12-48.576-111.84-48.576-31.648 0-61.792 11.008-84.256 33.472-49.984 49.984-43.232 137.792 15.072 196.096 20.8 20.8 45.088 38.048 70.72 52.416l-217.024 0 0 256 64 0 0 448 768 0 0-448 64 0 0-256-188.48 0zM674.336 128.224c27.712-27.712 62.336-44.288 92.544-44.288 10.688 0 25.696 2.24 36.448 12.992 26.016 26.016 11.424 86.304-31.264 128.992-43.936 43.936-103.072 74.176-154.432 94.048l-50.688 0c18.56-57.536 52.064-136.448 107.392-191.776zM233.92 160.896c-0.704-9.12-0.064-26.24 12.192-38.496 10.24-10.24 23.776-12.384 33.344-12.384l0 0c21.248 0 43.456 10.016 60.928 27.488 33.888 33.856 61.76 87.776 80.672 155.872 0.512 1.824 0.992 3.68 1.504 5.472-1.824-0.48-3.648-0.992-5.472-1.504-68.096-18.912-122.016-46.784-155.872-80.672-15.84-15.84-25.76-36.16-27.296-55.776zM448 960l-256 0 0-416 256 0 0 416zM448 512l-320 0 0-128 320 0 0 128zM832 960l-256 0 0-416 256 0 0 416zM896 512l-320 0 0-128 320 0 0 128z" p-id="2101" fill="#ffffff"></path></svg>