<?xml version="1.0" standalone="no"?><!DOCTYPE svg PUBLIC "-//W3C//DTD SVG 1.1//EN" "http://www.w3.org/Graphics/SVG/1.1/DTD/svg11.dtd"><svg t="1543418763229" class="icon" style="" viewBox="0 0 1024 1024" version="1.1" xmlns="http://www.w3.org/2000/svg" p-id="2148" xmlns:xlink="http://www.w3.org/1999/xlink" width="200" height="200"><defs><style type="text/css"></style></defs><path d="M1003.52 368.64c8.192 0 15.36-7.168 15.36-15.36v-79.872c0-52.224-43.008-95.232-95.232-95.232H100.352c-52.224 0-95.232 43.008-95.232 95.232v79.872c0 8.192 7.168 15.36 15.36 15.36 79.872 0 144.384 64.512 144.384 144.384S100.352 657.408 20.48 657.408c-8.192 0-15.36 7.168-15.36 15.36v79.872c0 52.224 43.008 95.232 95.232 95.232h823.296c52.224 0 95.232-43.008 95.232-95.232v-79.872c0-8.192-7.168-15.36-15.36-15.36-79.872 0-144.384-64.512-144.384-144.384S923.648 368.64 1003.52 368.64zM35.84 751.616v-64.512c89.088-8.192 159.744-82.944 159.744-174.08s-70.656-165.888-159.744-174.08v-64.512c0-35.84 28.672-64.512 64.512-64.512h209.92v607.232H100.352c-35.84-1.024-64.512-29.696-64.512-65.536z m792.576-238.592c0 91.136 70.656 165.888 159.744 174.08v64.512c0 35.84-28.672 64.512-64.512 64.512H340.992V208.896h582.656c35.84 0 64.512 28.672 64.512 64.512V337.92c-89.088 8.192-159.744 83.968-159.744 175.104z" fill="#ffffff" p-id="2149"></path></svg>